<svg viewBox="0 0 56.7 56.7" 
xml:space="preserve" 
xmlns="http://www.w3.org/2000/svg" 
enable-background="new 0 0 56.7 56.7">
<path d="M53.172 14.595h.001-.001v-1.184a4.097 4.097 0 0 0-4.085-4.085h-.002l-.002.003.004-.003H7.397l.015.013-.016-.012a4.097 4.097 0 0 0-4.085 4.085V41.32a4.097 4.097 0 0 0 4.085 4.086H47.508v-.001c4.286-.05 5.573-1.11 5.67-4.081l-.006-26.728zm-7.13-4.27L28.176 23.488 10.424 10.326h35.619zM9.862 20.553l16.55 11.4.017.012L9.851 43.491l.01-22.939zm.428 23.853 17.015-11.832.298.208a1 1 0 0 0 .571.18c.199 0 .878-.39.878-.39l17.02 11.834H10.288zm36.208-.921L29.93 31.964l9.24-6.364 7.327-5.047v22.93z" 
fill="#171717" 
class="fill-#ffffff"></path></svg>